#tb 0: 1/25
#media_type 0: video
#codec_id 0: rawvideo
#dimensions 0: 176x144
#sar 0: 0/1
0,          0,          0,        1,    38016, 0x25f92b0e
0,          1,          1,        1,    38016, 0x2ecbe752
0,          2,          2,        1,    38016, 0x3432e744
0,          3,          3,        1,    38016, 0x7970aa2e
0,          4,          4,        1,    38016, 0x250787bf
0,          5,          5,        1,    38016, 0xd58e5e56
0,          6,          6,        1,    38016, 0xf4b8580f
0,          7,          7,        1,    38016, 0x9acb4096
0,          8,          8,        1,    38016, 0xeed0476f
0,          9,          9,        1,    38016, 0xe33846ef
0,         10,         10,        1,    38016, 0x02da4e76
0,         11,         11,        1,    38016, 0xd3e572f8
0,         12,         12,        1,    38016, 0x5fd27f8a
0,         13,         13,        1,    38016, 0xfa169823
0,         14,         14,        1,    38016, 0xcc6b8d76
0,         15,         15,        1,    38016, 0xcc4da11f
0,         16,         16,        1,    38016, 0x32259b9d
0,         17,         17,        1,    38016, 0xf1e39b70
0,         18,         18,        1,    38016, 0xb49d7480
0,         19,         19,        1,    38016, 0x3dc158e9
0,         20,         20,        1,    38016, 0x4ce134db
0,         21,         21,        1,    38016, 0x4fb30b43
0,         22,         22,        1,    38016, 0xda49fe5f
0,         23,         23,        1,    38016, 0x7fda0d68
0,         24,         24,        1,    38016, 0x3a8b25e3
0,         25,         25,        1,    38016, 0x3df11d4e
0,         26,         26,        1,    38016, 0x26e11107
0,         27,         27,        1,    38016, 0xdc3b03a7
0,         28,         28,        1,    38016, 0x72b2434d
0,         29,         29,        1,    38016, 0x2a013e27
0,         30,         30,        1,    38016, 0xf95a4c2e
0,         31,         31,        1,    38016, 0x1e7b6656
0,         32,         32,        1,    38016, 0x776a81c8
0,         33,         33,        1,    38016, 0x162cb0bf
0,         34,         34,        1,    38016, 0x7ff4aaf5
0,         35,         35,        1,    38016, 0x7150b50b
0,         36,         36,        1,    38016, 0xf7d0b889
0,         37,         37,        1,    38016, 0xbe09b5c2
0,         38,         38,        1,    38016, 0xf6f7d29c
0,         39,         39,        1,    38016, 0x4356b996
0,         40,         40,        1,    38016, 0xb056c4b4
0,         41,         41,        1,    38016, 0x38e9c6e6
0,         42,         42,        1,    38016, 0x9c64ab45
0,         43,         43,        1,    38016, 0x31189eef
0,         44,         44,        1,    38016, 0x1ee3a3b1
0,         45,         45,        1,    38016, 0x8bed7c95
0,         46,         46,        1,    38016, 0x30357cee
0,         47,         47,        1,    38016, 0x5d828428
0,         48,         48,        1,    38016, 0xc06388b3
0,         49,         49,        1,    38016, 0x2af597b4
